<?xml version="1.0" encoding="utf-8"?>
<!-- Generator: Adobe Illustrator 12.0.1, SVG Export Plug-In . SVG Version: 6.00 Build 51448)  -->
<!DOCTYPE svg PUBLIC "-//W3C//DTD SVG 1.1//EN" "http://www.w3.org/Graphics/SVG/1.1/DTD/svg11.dtd" [
	<!ENTITY ns_svg "http://www.w3.org/2000/svg">
	<!ENTITY ns_xlink "http://www.w3.org/1999/xlink">
]>
<svg  version="1.1" xmlns="&ns_svg;" xmlns:xlink="&ns_xlink;" width="56.693" height="56.693" viewBox="0 0 56.693 56.693"
	 overflow="visible" enable-background="new 0 0 56.693 56.693" xml:space="preserve">
<g id="レイヤー_3" display="none">
	<rect display="inline" width="56.693" height="56.693"/>
</g>
<g id="レイヤー_1" display="none">
	<circle display="inline" fill="none" stroke="#FFFFFF" stroke-width="5" cx="28.33" cy="28.33" r="25.737"/>
	<g display="inline">
		<path fill="#FFFFFF" d="M19.927,20.913c2.501,0,4.525,0.757,6.074,2.27s2.322,3.274,2.322,5.282c0,2.037-0.785,3.802-2.354,5.298
			c-1.569,1.495-3.583,2.243-6.042,2.243c-2.486,0-4.511-0.744-6.073-2.233c-1.563-1.488-2.343-3.258-2.343-5.308
			c0-2.015,0.776-3.778,2.328-5.288S17.419,20.913,19.927,20.913z M19.927,32.96c1.385,0,2.5-0.413,3.346-1.239
			c0.846-0.826,1.269-1.91,1.269-3.253c0-1.35-0.423-2.436-1.269-3.258c-0.846-0.823-1.961-1.234-3.346-1.234
			c-1.391,0-2.512,0.411-3.361,1.234s-1.274,1.909-1.274,3.258c0,1.343,0.424,2.427,1.274,3.253S18.536,32.96,19.927,32.96z"/>
		<path fill="#FFFFFF" d="M43.3,21.116l-4.778,6.908l6.481,7.779h-4.572l-5.818-6.886v6.886h-3.656V21.116h3.656v6.613l4.65-6.613
			H43.3z"/>
	</g>
</g>
<g id="レイヤー_2" display="none">
	
		<polygon display="inline" fill="#FFFFFF" stroke="#FFFFFF" stroke-width="5" stroke-linecap="round" stroke-linejoin="round" stroke-miterlimit="1" points="
		2.924,49.797 28.478,5.537 54.031,49.797 	"/>
	<g display="inline">
		<path d="M27.333,23.116v14.688h-3.077l-8.126-9.41v9.41h-3.656V23.116h3.35l7.853,8.979v-8.979H27.333z"/>
		<path d="M44.632,24.128v3.207c-1.867-0.906-3.691-1.359-5.475-1.359c-1.72,0-3.045,0.436-3.975,1.308
			c-0.93,0.872-1.395,1.982-1.395,3.332c0,1.294,0.465,2.342,1.395,3.143c0.929,0.802,2.152,1.202,3.668,1.202
			c0.804,0,1.611-0.176,2.422-0.528V32.71h-2.109v-2.688h5.781v6.007c-0.581,0.582-1.465,1.057-2.652,1.426
			c-1.188,0.367-2.361,0.552-3.524,0.552c-2.556,0-4.655-0.707-6.298-2.122c-1.642-1.415-2.463-3.215-2.463-5.398
			c0-2.233,0.82-4.054,2.462-5.461s3.768-2.112,6.378-2.112C41.003,22.913,42.931,23.318,44.632,24.128z"/>
	</g>
</g>
<g id="レイヤー_4">
	
		<rect x="3.055" y="3.153" fill="none" stroke="#FFFFFF" stroke-width="5" stroke-linejoin="round" width="50.676" height="50.675"/>
	<g>
		<path fill="#FFFFFF" d="M17.253,12.185l6.503,14.688h-3.934l-1.209-2.906h-6.569l-1.099,2.906H7.069l5.919-14.688H17.253z
			 M17.547,21.403l-2.376-5.707l-2.158,5.707H17.547z"/>
		<path fill="#FFFFFF" d="M36.659,24.185v2.688H25.456V12.185h3.656v12H36.659z"/>
		<path fill="#FFFFFF" d="M49.904,24.185v2.688H38.701V12.185h3.656v12H49.904z"/>
		<path fill="#FFFFFF" d="M20.927,32.981c2.501,0,4.525,0.757,6.074,2.271c1.548,1.513,2.323,3.273,2.323,5.281
			c0,2.037-0.785,3.803-2.354,5.299c-1.569,1.495-3.583,2.243-6.042,2.243c-2.486,0-4.511-0.744-6.073-2.233
			c-1.563-1.488-2.343-3.258-2.343-5.309c0-2.015,0.776-3.777,2.328-5.287S18.419,32.981,20.927,32.981z M20.927,45.028
			c1.385,0,2.5-0.413,3.346-1.239c0.846-0.826,1.269-1.91,1.269-3.253c0-1.35-0.423-2.436-1.269-3.259
			c-0.846-0.822-1.961-1.233-3.346-1.233c-1.391,0-2.512,0.411-3.361,1.233c-0.85,0.823-1.274,1.909-1.274,3.259
			c0,1.343,0.424,2.427,1.274,3.253S19.536,45.028,20.927,45.028z"/>
		<path fill="#FFFFFF" d="M44.3,33.185l-4.778,6.908l6.481,7.779h-4.572l-5.818-6.886v6.886h-3.656V33.185h3.656v6.613l4.65-6.613
			H44.3z"/>
	</g>
</g>
</svg>
